<?xml version="1.0" encoding="UTF-8" standalone="no"?>
<!DOCTYPE svg PUBLIC "-//W3C//DTD SVG 1.1//EN" "http://www.w3.org/Graphics/SVG/1.1/DTD/svg11.dtd">

<svg 
  xmlns="http://www.w3.org/2000/svg" 
  aria-hidden="true" 
  role="img" 
  width="1em" 
  height="1em" 
  preserveAspectRatio="xMidYMid meet" 
  viewBox="0 0 24 24">
  
  <path fill="#000000" d="M16.396 7.757a1 1 0 0 1 0 1.415l-2.982 2.981l2.676 2.675a1 1 0 1 1-1.415 1.415L12 13.567l-2.675 2.676a1 1 0 0 1-1.415-1.415l2.676-2.675l-2.982-2.981A1 1 0 1 1 9.02 7.757L12 10.74l2.981-2.982a1 1 0 0 1 1.415 0Z"/>
  <path fill= "#000000" fill-rule="evenodd" d="M4 1a3 3 0 0 0-3 3v16a3 3 0 0 0 3 3h16a3 3 0 0 0 3-3V4a3 3 0 0 0-3-3H4Zm16 2H4a1 1 0 0 0-1 1v16a1 1 0 0 0 1 1h16a1 1 0 0 0 1-1V4a1 1 0 0 0-1-1Z" clip-rule="evenodd"/>
</svg>