<?xml version="1.0" encoding="UTF-8" standalone="no"?>
<!DOCTYPE svg PUBLIC "-//W3C//DTD SVG 1.1//EN" "http://www.w3.org/Graphics/SVG/1.1/DTD/svg11.dtd">
<svg width="100%" height="100%" viewBox="0 0 800 600" version="1.1" xmlns="http://www.w3.org/2000/svg" xmlns:xlink="http://www.w3.org/1999/xlink" xml:space="preserve" xmlns:serif="http://www.serif.com/" style="fill-rule:evenodd;clip-rule:evenodd;stroke-linejoin:round;stroke-miterlimit:1.5;">
    <g>
        <path d="M613.512,42.527C613.512,42.527 502.176,196.376 451.63,266.222C437.014,286.42 436.872,313.681 451.279,334.029C501.659,405.184 613.512,563.165 613.512,563.165" style="fill:none;stroke:black;stroke-width:54.17px;"/>
        <g transform="matrix(1,0,0,1,36.2094,0)">
            <path d="M604.543,62.33C559.771,122.374 481.09,227.787 445.54,275.412C434.626,290.035 434.5,310.059 445.23,324.817C490.362,386.89 604.543,543.93 604.543,543.93" style="fill:none;stroke:rgb(255,0,0);stroke-width:14.58px;stroke-linejoin:miter;"/>
        </g>
        <g transform="matrix(1,0,0,1,112.476,2.84217e-14)">
            <path d="M551.327,128.225C551.327,128.225 493.867,207.733 457.131,258.564C439.35,283.168 439.779,316.514 458.186,340.652C494.956,388.871 551.327,462.794 551.327,462.794" style="fill:none;stroke:black;stroke-width:54.17px;"/>
        </g>
        <g transform="matrix(1,0,0,1,39.0199,0)">
            <path d="M649.491,145.91C649.491,145.91 593.007,225.157 561.053,269.989C548.334,287.834 548.717,311.883 562,329.314C594.109,371.452 649.491,444.131 649.491,444.131" style="fill:none;stroke:rgb(255,0,0);stroke-width:14.58px;stroke-linejoin:miter;"/>
        </g>
        <g transform="matrix(1,0,0,1,221.629,7.86119)">
            <path d="M500.57,199.271C500.57,199.271 473.253,236.768 451.952,266.006C437.406,285.972 438.356,313.284 454.254,332.191C475.167,357.064 500.57,387.276 500.57,387.276" style="fill:none;stroke:black;stroke-width:54.17px;stroke-linejoin:miter;"/>
        </g>
        <g transform="matrix(1,0,0,1,41.6958,-1.13449)">
            <path d="M705.262,225.992C705.262,225.992 676.984,267.006 660.458,290.975C653.577,300.955 654.193,314.299 661.965,323.602C678.643,343.569 705.262,375.434 705.262,375.434" style="fill:none;stroke:rgb(255,0,0);stroke-width:14.58px;stroke-linejoin:miter;"/>
        </g>
        <path d="M12.015,9.369L130.94,9.395L275.014,221.992L420.349,9.399L539.215,9.38L335.081,291.61L551.241,590.625L432.371,590.633L275.045,361.183L118.902,590.629L0.025,590.626L216.186,291.595L12.015,9.369Z"/>
        <path d="M12.015,9.369L130.94,9.395L275.014,221.992L420.349,9.399L539.215,9.38L335.081,291.61L551.241,590.625L432.371,590.633L275.045,361.183L118.902,590.629L0.025,590.626L216.186,291.595L12.015,9.369ZM20.174,13.538L128.73,13.561C142.78,34.293 271.565,224.33 271.565,224.33L278.454,224.344C278.454,224.344 408.424,34.226 422.548,13.565C422.548,13.565 531.058,13.548 531.058,13.548C500.314,56.054 331.705,289.168 331.705,289.168L331.704,294.051L543.088,586.459C543.088,586.459 434.566,586.466 434.566,586.466C434.566,586.466 278.482,358.827 278.482,358.827L271.601,358.839L116.698,586.462C116.698,586.462 8.178,586.459 8.178,586.459C8.178,586.459 219.562,294.036 219.562,294.036L219.561,289.152L20.174,13.538L20.174,13.538Z"/>
        <path d="M131.397,9.366C131.397,9.366 222.994,184.773 246.82,230.401C250.268,237.003 257.099,241.143 264.548,241.143C272.021,241.143 281.573,241.143 289.061,241.143C296.554,241.143 303.419,236.954 306.846,230.29C330.401,184.491 420.471,9.366 420.471,9.366L378.392,9.366L275.622,207.132L176.696,9.366L131.397,9.366Z" style="fill:rgb(255,0,0);"/>
        <path d="M131.397,9.366C131.397,9.366 222.994,184.773 246.82,230.401C250.268,237.003 257.099,241.143 264.548,241.143C272.021,241.143 281.573,241.143 289.061,241.143C296.554,241.143 303.419,236.954 306.846,230.29C330.401,184.491 420.471,9.366 420.471,9.366L378.392,9.366L275.622,207.132L176.696,9.366L131.397,9.366ZM155.465,23.949L167.685,23.949C167.685,23.949 262.579,213.656 262.579,213.656L288.562,213.857L387.249,23.949C387.249,23.949 396.571,23.949 396.571,23.949C396.571,23.949 293.878,223.62 293.878,223.62C292.949,225.425 291.09,226.56 289.061,226.56C289.061,226.56 264.548,226.56 264.548,226.56C262.531,226.56 260.681,225.439 259.747,223.65L155.465,23.949Z" style="fill:rgb(255,0,0);"/>
    </g>
</svg>
